# xmcd
#
# Track frame offsets:
#	150
#	22572
#	41872
#	58849
#	74269
#	88199
#	106884
#	123211
#	140426
#	162826
#	182119
#	199099
#	214509
#	228419
#	247052
#	263440
#	292088
#
# Disc length: 3906 seconds
#
# Revision: 2
# Processed by: cddbd v1.5.2PL0 Copyright (c) Steve Scherf et al.
# Submitted via: audiograbber 1.83.01
#
DISCID=f20f4011
DTITLE=Sound Choice - SC2368
DYEAR=2002
DGENRE=Country
TTITLE0=Martina McBride - Love's The Only House (Radio Version)
TTITLE1=Martina McBride - Blessed
TTITLE2=Martina McBride - Broken Wing, A
TTITLE3=Jim Brickman and Martina McBride - Valentine
TTITLE4=Martina McBride - I Love You
TTITLE5=Martina McBride - Wild Angels
TTITLE6=Martina McBride - There You Are
TTITLE7=Martina McBride - When God Fearin' Women Get The Blues (Radio Version)
TTITLE8=Martina McBridew/Vocal - Love's The Only House
TTITLE9=Martina McBride w/Vocal - Blessed
TTITLE10=Martina McBride w/Vocal - Broken Wing, A
TTITLE11=Brickman, Jim and Martina McBride w/Vocal - Valentine
TTITLE12=Martina McBride w/Vocal - I Love You
TTITLE13=Martina McBride w/Vocal - Wild Angels
TTITLE14=Martina McBride w/Vocal - There You Are
TTITLE15=Martina McBride w/Vocal - When God Fearin' Women Get The Blues
TTITLE16=Data - Data Track
EXTD=
EXTT0=
EXTT1=
EXTT2=
EXTT3=
EXTT4=
EXTT5=
EXTT6=
EXTT7=
EXTT8=
EXTT9=
EXTT10=
EXTT11=
EXTT12=
EXTT13=
EXTT14=
EXTT15=
EXTT16=
PLAYORDER=
